<?xml version="1.0" standalone="no"?>
<!DOCTYPE svg PUBLIC "-//W3C//DTD SVG 20010904//EN"
 "http://www.w3.org/TR/2001/REC-SVG-20010904/DTD/svg10.dtd">
<svg version="1.0" xmlns="http://www.w3.org/2000/svg"
 width="892.000000pt" height="461.000000pt" viewBox="0 0 892.000000 461.000000"
 preserveAspectRatio="xMidYMid meet">

<g transform="translate(0.000000,461.000000) scale(0.100000,-0.100000)"
fill="#000000" stroke="none">
<path d="M2200 3457 c-338 -188 -1223 -703 -1245 -725 -57 -56 -55 -29 -55
-860 0 -760 0 -766 21 -810 15 -30 38 -54 73 -77 120 -78 1265 -729 1304 -741
34 -11 50 -11 85 0 36 11 1258 707 1324 754 12 9 34 40 48 67 l25 51 -2 771
-3 771 -30 44 c-27 38 -95 80 -630 390 -330 191 -630 363 -666 383 -96 51
-130 48 -249 -18z m325 -533 c8 -4 23 -20 31 -36 30 -59 11 -78 -208 -204
l-68 -38 0 -567 0 -567 -31 -26 c-17 -14 -40 -26 -52 -26 -32 0 -86 36 -92 62
-3 13 -4 287 -3 610 3 587 3 587 25 609 11 12 86 59 165 105 142 83 183 97
233 78z m296 -173 l24 -19 3 -749 c2 -511 0 -760 -8 -785 -12 -41 -29 -52
-434 -283 -166 -95 -193 -107 -225 -102 -40 5 -290 144 -333 185 -36 33 -37
74 -3 107 41 42 78 34 216 -45 68 -38 126 -70 130 -70 4 0 113 60 241 133
l233 134 3 730 2 730 25 27 c30 32 91 36 126 7z m-306 -153 c56 -25 55 -18 55
-640 0 -526 -1 -576 -18 -607 -14 -28 -46 -52 -172 -123 -138 -80 -159 -89
-195 -85 -44 4 -316 152 -347 189 -42 48 -10 116 57 124 36 4 54 -3 169 -69
l129 -74 96 56 96 57 5 570 c5 607 4 598 53 607 39 8 46 7 72 -5z"/>
<path d="M4814 2556 c-42 -18 -71 -58 -92 -125 -15 -48 -17 -101 -17 -381 0
-277 3 -334 17 -388 32 -115 71 -147 178 -146 108 0 153 43 181 169 19 87 19
637 0 723 -17 77 -45 121 -91 144 -42 21 -132 23 -176 4z m131 -106 c14 -16
20 -48 27 -162 11 -160 2 -543 -13 -600 -11 -41 -38 -55 -83 -44 -47 12 -51
44 -51 396 0 332 4 388 31 415 22 21 67 19 89 -5z"/>
<path d="M5946 2560 c-79 -24 -111 -98 -111 -260 0 -152 17 -188 131 -278 105
-84 124 -119 124 -228 0 -120 -16 -154 -73 -154 -37 0 -57 47 -57 135 l0 65
-65 0 -66 0 6 -62 c21 -210 59 -263 189 -262 86 0 128 21 159 79 18 34 22 61
25 172 6 196 -16 242 -161 343 -76 53 -87 80 -87 199 0 126 14 160 67 161 32
0 51 -35 59 -107 l7 -63 60 0 60 0 -6 58 c-13 117 -42 173 -103 198 -37 15
-113 17 -158 4z"/>
<path d="M4290 2510 l0 -50 51 0 51 0 -4 -387 c-3 -423 -5 -437 -56 -431 -22
2 -30 11 -40 46 l-14 42 -59 0 -58 0 5 -32 c25 -146 82 -197 198 -182 63 8 98
41 122 115 16 48 18 106 22 492 l3 437 -110 0 -111 0 0 -50z"/>
<path d="M5292 2044 l3 -519 85 -3 c225 -8 287 35 309 214 15 121 -8 258 -55
320 l-23 31 20 62 c29 94 27 261 -3 321 -39 76 -60 84 -209 89 l-129 3 2 -518z
m227 397 c44 -44 35 -283 -12 -313 -7 -4 -31 -8 -54 -8 l-43 0 0 170 0 170 45
0 c31 0 51 -6 64 -19z m18 -436 c27 -19 43 -85 43 -178 0 -148 -18 -177 -110
-177 l-60 0 0 185 0 185 53 0 c30 0 62 -6 74 -15z"/>
<path d="M6342 2503 l3 -58 62 -3 63 -3 2 -457 3 -457 55 0 55 0 3 457 2 457
63 3 62 3 3 58 3 57 -191 0 -191 0 3 -57z"/>
<path d="M6872 2043 l3 -518 140 0 140 0 3 62 3 62 -83 3 -83 3 0 180 0 180
73 3 72 3 0 49 0 50 -75 0 -75 0 2 168 3 167 83 3 82 3 0 49 0 50 -145 0 -145
0 2 -517z"/>
<path d="M7332 2043 l3 -518 55 0 55 0 3 248 2 248 47 -3 c82 -5 83 -9 111
-393 l7 -100 53 -3 c40 -2 54 1 58 12 7 19 -23 382 -37 446 -6 24 -17 52 -25
61 -13 15 -12 20 6 52 48 81 50 333 3 396 -45 59 -64 66 -209 69 l-134 4 2
-519z m234 403 c17 -13 19 -29 22 -143 3 -165 -2 -177 -81 -181 l-57 -3 0 171
0 170 48 0 c27 0 57 -6 68 -14z"/>
<path d="M4173 1313 c14 -4 17 -17 19 -76 l2 -72 5 69 c5 57 10 70 26 77 14 5
6 7 -25 7 -25 0 -37 -2 -27 -5z"/>
<path d="M4291 1316 c2 -2 20 -6 39 -10 25 -4 31 -3 20 4 -14 9 -69 15 -59 6z"/>
<path d="M4583 1313 c9 -2 23 -2 30 0 6 3 -1 5 -18 5 -16 0 -22 -2 -12 -5z"/>
<path d="M5027 1313 c-3 -5 8 -8 23 -8 15 0 26 3 23 8 -2 4 -13 7 -23 7 -10 0
-21 -3 -23 -7z"/>
<path d="M5290 1316 c0 -2 13 -6 29 -8 17 -2 28 -1 25 4 -5 8 -54 12 -54 4z"/>
<path d="M5597 1313 c-3 -5 8 -8 23 -8 15 0 26 3 23 8 -2 4 -13 7 -23 7 -10 0
-21 -3 -23 -7z"/>
<path d="M5710 1316 c0 -2 13 -6 29 -8 17 -2 28 -1 25 4 -5 8 -54 12 -54 4z"/>
<path d="M5857 1313 c-3 -5 8 -8 23 -8 15 0 26 3 23 8 -2 4 -13 7 -23 7 -10 0
-21 -3 -23 -7z"/>
<path d="M6057 1313 c-3 -5 8 -8 23 -8 15 0 26 3 23 8 -2 4 -13 7 -23 7 -10 0
-21 -3 -23 -7z"/>
<path d="M6347 1313 c-3 -5 8 -8 24 -8 16 0 29 3 29 8 0 4 -11 7 -24 7 -14 0
-27 -3 -29 -7z"/>
<path d="M6477 1313 c-3 -5 8 -8 24 -8 16 0 29 3 29 8 0 4 -11 7 -24 7 -14 0
-27 -3 -29 -7z"/>
<path d="M6590 1316 c0 -9 37 -12 55 -5 15 6 11 8 -17 8 -21 1 -38 -1 -38 -3z"/>
<path d="M6713 1245 c0 -51 2 -68 6 -45 5 31 10 36 41 41 l35 6 -35 4 c-31 4
-36 8 -41 39 -4 23 -6 6 -6 -45z"/>
<path d="M4460 1300 c0 -5 5 -10 10 -10 6 0 10 5 10 10 0 6 -4 10 -10 10 -5 0
-10 -4 -10 -10z"/>
<path d="M4718 1278 c-34 -37 -39 -65 -8 -46 10 7 17 14 15 16 -2 3 2 17 11
33 18 36 16 36 -18 -3z"/>
<path d="M6180 1293 c0 -13 5 -23 10 -23 13 0 13 11 0 30 -8 12 -10 11 -10 -7z"/>
<path d="M6257 1289 c-3 -13 -1 -19 6 -16 15 5 22 37 9 37 -5 0 -12 -9 -15
-21z"/>
<path d="M6050 1262 c0 -4 14 -15 30 -24 17 -9 30 -14 30 -10 0 4 -14 15 -30
24 -17 9 -30 14 -30 10z"/>
<path d="M4344 1251 c-5 -5 -20 -11 -34 -14 -21 -4 -20 -4 7 -6 17 0 35 4 38
10 9 14 1 21 -11 10z"/>
<path d="M4920 1249 c0 -5 5 -7 10 -4 6 3 10 8 10 11 0 2 -4 4 -10 4 -5 0 -10
-5 -10 -11z"/>
<path d="M5710 1250 c0 -5 14 -10 30 -10 17 0 30 5 30 10 0 6 -13 10 -30 10
-16 0 -30 -4 -30 -10z"/>
<path d="M5851 1257 c2 -2 18 -11 34 -21 l30 -17 -24 20 c-13 12 -28 21 -34
21 -6 0 -8 -1 -6 -3z"/>
<path d="M6970 1249 c0 -5 5 -7 10 -4 6 3 10 8 10 11 0 2 -4 4 -10 4 -5 0 -10
-5 -10 -11z"/>
<path d="M5310 1240 l-25 -8 27 -1 c15 -1 30 4 33 9 7 11 0 11 -35 0z"/>
<path d="M6227 1233 c-4 -3 -7 -11 -7 -17 0 -6 5 -5 12 2 6 6 9 14 7 17 -3 3
-9 2 -12 -2z"/>
<path d="M4440 1218 c0 -5 14 -8 30 -8 17 0 30 3 30 8 0 4 -13 7 -30 7 -16 0
-30 -3 -30 -7z"/>
<path d="M5027 1178 c2 -5 15 -8 29 -8 13 0 24 3 24 8 0 4 -13 7 -29 7 -16 0
-27 -3 -24 -7z"/>
<path d="M5157 1178 c2 -5 15 -8 28 -8 13 0 26 3 28 8 3 4 -10 7 -28 7 -18 0
-31 -3 -28 -7z"/>
<path d="M5500 1180 c-9 -6 -10 -10 -3 -10 6 0 15 5 18 10 8 12 4 12 -15 0z"/>
<path d="M5590 1178 c0 -5 14 -8 30 -8 17 0 30 3 30 8 0 4 -13 7 -30 7 -16 0
-30 -3 -30 -7z"/>
<path d="M5740 1180 l-35 -7 32 -2 c17 0 35 4 38 9 3 6 5 9 3 9 -2 -1 -19 -5
-38 -9z"/>
<path d="M5850 1178 c0 -5 11 -8 24 -8 14 0 27 3 29 8 3 4 -8 7 -24 7 -16 0
-29 -3 -29 -7z"/>
<path d="M6059 1177 c5 -5 19 -7 32 -5 20 3 19 5 -9 9 -20 3 -29 2 -23 -4z"/>
<path d="M6347 1178 c2 -5 15 -8 28 -8 13 0 26 3 28 8 3 4 -10 7 -28 7 -18 0
-31 -3 -28 -7z"/>
<path d="M6477 1178 c2 -5 15 -8 28 -8 13 0 26 3 28 8 3 4 -10 7 -28 7 -18 0
-31 -3 -28 -7z"/>
<path d="M4583 1173 c9 -2 23 -2 30 0 6 3 -1 5 -18 5 -16 0 -22 -2 -12 -5z"/>
<path d="M6863 1173 c9 -2 25 -2 35 0 9 3 1 5 -18 5 -19 0 -27 -2 -17 -5z"/>
</g>
</svg>
